# xmcd
#
# Track frame offsets: 
#        150
#        34545
#        55104
#        89313
#        106050
#        132621
#        155993
#        164722
#        171040
#        205395
#        214929
#        245896
#        281859
#        290875
#        318083
#        353181
#
# Disc length: 4729 seconds
#
# Revision: 1
# Processed by: cddbd v1.5.2PL0 Copyright (c) Steve Scherf et al.
# Submitted via: ExactAudioCopyFreeDBPlugin 1.0
#
DISCID=03127710
DTITLE=Mjölnir - Hinweg Über Die Tore Der Zeit CD2
DYEAR=2015
DGENRE=Black Metal
TTITLE0=Kreis Der Schlange
TTITLE1=Wald Aus Eisen Und Eis
TTITLE2=Walpurgisfeuer
TTITLE3=Hinweg Über Die Tore Der Zeit
TTITLE4=Schleier Der Nebel
TTITLE5=Heil Und Schwert
TTITLE6=Outro
TTITLE7=I
TTITLE8=II
TTITLE9=III
TTITLE10=IV
TTITLE11=V
TTITLE12=VI
TTITLE13=VII
TTITLE14=VIII
TTITLE15=IX
EXTD=
EXTT0=
EXTT1=
EXTT2=
EXTT3=
EXTT4=
EXTT5=
EXTT6=
EXTT7=
EXTT8=
EXTT9=
EXTT10=
EXTT11=
EXTT12=
EXTT13=
EXTT14=
EXTT15=
PLAYORDER=
